<svg
    xmlns="http://www.w3.org/2000/svg"
    viewBox="0 0 24 24"
    id="vector">
    <path
        id="path"
        d="M 18 3 L 18 5 L 16 5 L 16 3 L 8 3 L 8 5 L 6 5 L 6 3 L 4 3 L 4 21 L 6 21 L 6 19 L 8 19 L 8 21 L 16 21 L 16 19 L 18 19 L 18 21 L 20 21 L 20 3 L 18 3 Z M 8 17 L 6 17 L 6 15 L 8 15 L 8 17 Z M 8 13 L 6 13 L 6 11 L 8 11 L 8 13 Z M 8 9 L 6 9 L 6 7 L 8 7 L 8 9 Z M 18 17 L 16 17 L 16 15 L 18 15 L 18 17 Z M 18 13 L 16 13 L 16 11 L 18 11 L 18 13 Z M 18 9 L 16 9 L 16 7 L 18 7 L 18 9 Z"
        fill="#007bff"/>
</svg>
